<?xml version="1.0" encoding="UTF-8"?>
<svg version="1.1" xmlns="http://www.w3.org/2000/svg" width="500" height="500">
<path d="M0 0 C0.66959147 -0.00297112 1.33918295 -0.00594224 2.02906507 -0.0090034 C4.265763 -0.01765309 6.50240717 -0.0191955 8.73912048 -0.02069092 C10.34598402 -0.02532187 11.95284647 -0.03034691 13.55970764 -0.03573608 C17.92164802 -0.04883859 22.28357301 -0.05530128 26.64552999 -0.05974674 C29.37455338 -0.06268199 32.10357262 -0.06678773 34.83259392 -0.07125092 C43.38198421 -0.0849225 51.93136494 -0.09458984 60.4807654 -0.09845281 C70.32881403 -0.10292765 80.17672346 -0.1204503 90.02472979 -0.1494534 C97.64958637 -0.17112438 105.27440395 -0.18116003 112.89929098 -0.18249393 C117.44697422 -0.18353842 121.99452656 -0.18936975 126.5421772 -0.20731354 C130.825979 -0.22388729 135.10955281 -0.22590497 139.3933754 -0.21717453 C140.95736365 -0.21640901 142.52136464 -0.22068217 144.08532143 -0.23063278 C156.18083891 -0.30301644 167.25448455 1.0504687 178.15293884 6.57794189 C179.15635315 7.08575195 179.15635315 7.08575195 180.18003845 7.6038208 C196.00014119 16.07947883 207.38293766 31.22584705 213.21934509 48.03106689 C216.06439118 57.87190263 216.36668241 67.58949586 216.37657166 77.76593018 C216.38153656 79.00136063 216.38650146 80.23679108 216.39161682 81.50965881 C216.40365511 84.87574395 216.41116511 88.24176754 216.41562748 91.60786676 C216.41857558 93.71915985 216.42268351 95.83044771 216.42713165 97.94173813 C216.44077947 104.571621 216.45045912 111.2014917 216.45433354 117.83138764 C216.45880644 125.43977385 216.47632998 133.04797972 216.50533414 140.65631115 C216.52707289 146.5675098 216.53704429 152.47865815 216.53837466 158.38989627 C216.5394141 161.90643657 216.5451352 165.42280676 216.56319427 168.93930435 C216.73416165 204.24377056 216.73416165 204.24377056 209.40293884 217.57794189 C209.05183044 218.24624023 208.70072205 218.91453857 208.338974 219.60308838 C205.72079133 224.48015372 202.80581119 228.9200042 199.21543884 233.14044189 C198.80422791 233.70505127 198.39301697 234.26966064 197.96934509 234.85137939 C190.70081695 244.38458248 179.28192563 250.24332842 168.21543884 254.14044189 C166.51387634 254.75919189 166.51387634 254.75919189 164.77793884 255.39044189 C154.7025211 257.51158247 144.21006774 257.28635951 133.95835876 257.26983643 C132.58340407 257.27119573 131.20844975 257.27297861 129.83349609 257.27514648 C126.1390853 257.27965921 122.4447028 257.27795657 118.75029159 257.2747674 C114.85539796 257.2722101 110.96050653 257.27459077 107.06561279 257.27615356 C100.5252998 257.27796616 93.98499815 257.2755936 87.44468689 257.27081299 C79.92447981 257.26537898 72.40429988 257.26713045 64.88409346 257.27263939 C58.38766665 257.27720476 51.89124793 257.27780424 45.39482003 257.27520072 C41.53240631 257.27365578 37.67000526 257.27339436 33.80759239 257.27673721 C30.17049986 257.27966583 26.53344166 257.27755051 22.89635277 257.27184296 C20.95532145 257.26992969 19.01428716 257.27282683 17.07325745 257.27597046 C-2.2084253 257.23058635 -18.20349176 255.98742389 -34.78456116 245.14044189 C-35.87897522 244.44821533 -35.87897522 244.44821533 -36.99549866 243.74200439 C-49.50122274 235.19065947 -59.76042206 218.96006881 -62.78456116 204.14044189 C-65.11942736 190.5849253 -65.06109738 177.11874754 -65.01502991 163.40216064 C-65.01383421 161.02673874 -65.01338577 158.65131636 -65.01364136 156.27589417 C-65.01208613 151.31966144 -65.00387299 146.36350191 -64.9903717 141.4072876 C-64.97341174 135.1073214 -64.96955733 128.80743551 -64.97031689 122.50744915 C-64.97004269 117.60760251 -64.96452142 112.70777284 -64.95731544 107.8079319 C-64.95417037 105.48749736 -64.95217131 103.16706093 -64.95142174 100.84662437 C-64.91391812 45.43368063 -64.91391812 45.43368063 -51.78456116 28.14044189 C-51.12456116 28.14044189 -50.46456116 28.14044189 -49.78456116 28.14044189 C-49.50999084 27.55520752 -49.23542053 26.96997314 -48.95252991 26.36700439 C-42.32316514 13.72908494 -27.83195853 6.2457084 -14.80799866 1.98028564 C-9.75858727 0.57767137 -5.25466576 0.01306303 0 0 Z " fill="#FBFBFC" transform="translate(172.78456115722656,124.85955810546875)"/>
<path d="M0 0 C0.66959147 -0.00297112 1.33918295 -0.00594224 2.02906507 -0.0090034 C4.265763 -0.01765309 6.50240717 -0.0191955 8.73912048 -0.02069092 C10.34598402 -0.02532187 11.95284647 -0.03034691 13.55970764 -0.03573608 C17.92164802 -0.04883859 22.28357301 -0.05530128 26.64552999 -0.05974674 C29.37455338 -0.06268199 32.10357262 -0.06678773 34.83259392 -0.07125092 C43.38198421 -0.0849225 51.93136494 -0.09458984 60.4807654 -0.09845281 C70.32881403 -0.10292765 80.17672346 -0.1204503 90.02472979 -0.1494534 C97.64958637 -0.17112438 105.27440395 -0.18116003 112.89929098 -0.18249393 C117.44697422 -0.18353842 121.99452656 -0.18936975 126.5421772 -0.20731354 C130.825979 -0.22388729 135.10955281 -0.22590497 139.3933754 -0.21717453 C140.95736365 -0.21640901 142.52136464 -0.22068217 144.08532143 -0.23063278 C156.18083891 -0.30301644 167.25448455 1.0504687 178.15293884 6.57794189 C179.15635315 7.08575195 179.15635315 7.08575195 180.18003845 7.6038208 C196.00014119 16.07947883 207.38293766 31.22584705 213.21934509 48.03106689 C216.06439118 57.87190263 216.36668241 67.58949586 216.37657166 77.76593018 C216.38153656 79.00136063 216.38650146 80.23679108 216.39161682 81.50965881 C216.40365511 84.87574395 216.41116511 88.24176754 216.41562748 91.60786676 C216.41857558 93.71915985 216.42268351 95.83044771 216.42713165 97.94173813 C216.44077947 104.571621 216.45045912 111.2014917 216.45433354 117.83138764 C216.45880644 125.43977385 216.47632998 133.04797972 216.50533414 140.65631115 C216.52707289 146.5675098 216.53704429 152.47865815 216.53837466 158.38989627 C216.5394141 161.90643657 216.5451352 165.42280676 216.56319427 168.93930435 C216.73416165 204.24377056 216.73416165 204.24377056 209.40293884 217.57794189 C209.05183044 218.24624023 208.70072205 218.91453857 208.338974 219.60308838 C205.72079133 224.48015372 202.80581119 228.9200042 199.21543884 233.14044189 C198.80422791 233.70505127 198.39301697 234.26966064 197.96934509 234.85137939 C190.70081695 244.38458248 179.28192563 250.24332842 168.21543884 254.14044189 C166.51387634 254.75919189 166.51387634 254.75919189 164.77793884 255.39044189 C154.7025211 257.51158247 144.21006774 257.28635951 133.95835876 257.26983643 C132.58340407 257.27119573 131.20844975 257.27297861 129.83349609 257.27514648 C126.1390853 257.27965921 122.4447028 257.27795657 118.75029159 257.2747674 C114.85539796 257.2722101 110.96050653 257.27459077 107.06561279 257.27615356 C100.5252998 257.27796616 93.98499815 257.2755936 87.44468689 257.27081299 C79.92447981 257.26537898 72.40429988 257.26713045 64.88409346 257.27263939 C58.38766665 257.27720476 51.89124793 257.27780424 45.39482003 257.27520072 C41.53240631 257.27365578 37.67000526 257.27339436 33.80759239 257.27673721 C30.17049986 257.27966583 26.53344166 257.27755051 22.89635277 257.27184296 C20.95532145 257.26992969 19.01428716 257.27282683 17.07325745 257.27597046 C-2.2084253 257.23058635 -18.20349176 255.98742389 -34.78456116 245.14044189 C-35.87897522 244.44821533 -35.87897522 244.44821533 -36.99549866 243.74200439 C-49.50122274 235.19065947 -59.76042206 218.96006881 -62.78456116 204.14044189 C-65.11942736 190.5849253 -65.06109738 177.11874754 -65.01502991 163.40216064 C-65.01383421 161.02673874 -65.01338577 158.65131636 -65.01364136 156.27589417 C-65.01208613 151.31966144 -65.00387299 146.36350191 -64.9903717 141.4072876 C-64.97341174 135.1073214 -64.96955733 128.80743551 -64.97031689 122.50744915 C-64.97004269 117.60760251 -64.96452142 112.70777284 -64.95731544 107.8079319 C-64.95417037 105.48749736 -64.95217131 103.16706093 -64.95142174 100.84662437 C-64.91391812 45.43368063 -64.91391812 45.43368063 -51.78456116 28.14044189 C-51.12456116 28.14044189 -50.46456116 28.14044189 -49.78456116 28.14044189 C-49.50999084 27.55520752 -49.23542053 26.96997314 -48.95252991 26.36700439 C-42.32316514 13.72908494 -27.83195853 6.2457084 -14.80799866 1.98028564 C-9.75858727 0.57767137 -5.25466576 0.01306303 0 0 Z M-27.78456116 30.14044189 C-28.56702209 30.78755127 -29.34948303 31.43466064 -30.15565491 32.10137939 C-38.97885205 40.10623616 -45.17116312 51.88571835 -45.96639061 63.88381767 C-46.03703446 67.14280147 -46.04335468 70.39610289 -46.02748108 73.65582275 C-46.02937943 74.89099136 -46.03127777 76.12615997 -46.03323364 77.39875793 C-46.03629129 80.76664226 -46.03046224 84.13427835 -46.0202806 87.50213313 C-46.01144808 91.03997931 -46.01325857 94.57782192 -46.01364136 98.11567688 C-46.01270679 104.05616473 -46.00405195 109.99660129 -45.9903717 115.93707275 C-45.9746557 122.78646668 -45.96937351 129.63580447 -45.97010726 136.48521513 C-45.97078504 143.80257109 -45.96383038 151.11990567 -45.95466065 158.43725514 C-45.95253852 160.53427605 -45.95182073 162.63129347 -45.95142174 164.72831535 C-45.95022191 168.65078556 -45.94047548 172.57321008 -45.92982483 176.4956665 C-45.93027802 177.64763519 -45.9307312 178.79960388 -45.93119812 179.98648071 C-45.86664848 196.29909735 -42.80813187 209.70746488 -31.78456116 222.14044189 C-31.17354553 222.97059814 -30.56252991 223.80075439 -29.93299866 224.65606689 C-27.52307822 227.44281126 -25.23180024 228.95146428 -22.03456116 230.76544189 C-20.55729553 231.62009033 -20.55729553 231.62009033 -19.05018616 232.49200439 C-9.83357199 237.14441011 -2.08724867 237.57711774 8.07969666 237.54449463 C9.68700636 237.55020351 11.29431201 237.55716978 12.90161133 237.56529236 C17.25103698 237.58318572 21.60026044 237.58206211 25.9497118 237.57634997 C29.59000264 237.5732513 33.23025503 237.5793584 36.87054038 237.58538872 C45.46551976 237.59942101 54.06039973 237.59788463 62.65538025 237.58648682 C71.49862662 237.5750183 80.34156926 237.58906287 89.18477559 237.61588329 C96.79697267 237.63809901 104.40907482 237.64466414 112.02130198 237.63880688 C116.55889963 237.63544873 121.09630284 237.63777545 125.63387299 237.65505791 C129.90548836 237.67061791 134.17665722 237.6664721 138.44825554 237.64775276 C140.0074016 237.64409118 141.56658141 237.64710361 143.12569618 237.65763855 C157.13884032 237.74502374 169.11236115 235.11279404 180.21543884 226.14044189 C192.20864464 214.14723609 197.48445573 199.12605614 197.63313293 182.34034729 C197.62638046 180.56786873 197.62638046 180.56786873 197.61949158 178.75958252 C197.62635483 177.47988083 197.63321808 176.20017914 197.64028931 174.88169861 C197.65805795 171.40849936 197.65708383 167.93555497 197.65134692 164.46232414 C197.64823201 161.54754503 197.65437268 158.63281327 197.66038567 155.71804094 C197.67437502 148.83552553 197.67291578 141.9531344 197.66148376 135.07061768 C197.65000084 128.00180765 197.6640937 120.93337696 197.69088024 113.86461687 C197.71312105 107.76399861 197.71965607 101.66349871 197.71380383 95.56284285 C197.71045384 91.93296169 197.71271761 88.3033237 197.73005486 84.67347717 C197.74856398 80.62251177 197.7342513 76.57227297 197.71714783 72.52130127 C197.7268158 71.3396489 197.73648376 70.15799652 197.7464447 68.9405365 C197.62893528 55.57857797 193.2306732 43.79221926 184.14903259 33.88653564 C171.14551263 21.62740323 156.80803912 18.67850642 139.48545837 18.73638916 C137.928589 18.73067508 136.37172382 18.72370683 134.81486511 18.71559143 C130.61636919 18.69775859 126.4180834 18.69880976 122.2195611 18.70453382 C118.70099466 18.70764032 115.18246773 18.70151699 111.66390693 18.69549507 C103.35601776 18.6814836 95.04823149 18.68298264 86.74034119 18.69439697 C78.199812 18.7058724 69.65959706 18.69180451 61.11910927 18.6650005 C53.75821333 18.64277261 46.39741551 18.6362221 39.03648841 18.64207691 C34.65260211 18.64543109 30.2689171 18.64313481 25.88505936 18.62582588 C21.75949394 18.6102454 17.63439037 18.6144338 13.50884247 18.63313103 C12.00494087 18.63678657 10.50100418 18.63379832 8.99713516 18.62324524 C-5.08638206 18.53205114 -16.80028987 20.93492572 -27.78456116 30.14044189 Z " fill="#111825" transform="translate(172.78456115722656,124.85955810546875)"/>
<path d="M0 0 C0.86942753 -0.00467997 1.73885507 -0.00935994 2.63462889 -0.01418173 C5.53559861 -0.02610709 8.43609378 -0.01668402 11.33706665 -0.00723267 C13.42199478 -0.01129951 15.50692075 -0.01664203 17.59184265 -0.02316284 C23.24686459 -0.03683039 28.90172218 -0.03153958 34.55674696 -0.02202559 C40.47958789 -0.01442412 46.40241486 -0.02147615 52.32525635 -0.02618408 C62.27339195 -0.03164105 72.22146073 -0.0244524 82.16958618 -0.01016235 C93.66156895 0.00615503 105.15339196 0.00088198 116.64537084 -0.01564157 C126.51904553 -0.02926877 136.3926722 -0.03116978 146.26635325 -0.02332556 C152.16030597 -0.0186547 158.05418369 -0.01800794 163.94813156 -0.02793503 C169.49184812 -0.03661999 175.03535942 -0.03055467 180.57905388 -0.01325226 C182.61032331 -0.00929522 184.64161009 -0.010408 186.67287254 -0.01704025 C189.45247474 -0.02527703 192.23142528 -0.01490838 195.01098633 0 C196.20765869 -0.01003825 196.20765869 -0.01003825 197.42850626 -0.02027929 C205.2946999 0.06116846 213.00173054 2.04064117 218.84634399 7.52059937 C221.39354403 11.20504589 220.98490963 15.18626665 220.75747681 19.50595093 C220.72855347 20.44446899 220.69963013 21.38298706 220.66983032 22.34994507 C220.02575933 37.58505578 215.06101293 52.33792124 204.28482056 63.48641968 C192.53495312 73.82886198 178.98067352 75.98512177 163.84585571 75.93026733 C162.24119629 75.93898141 160.63654517 75.94935426 159.03190613 75.96124268 C154.7073392 75.98783214 150.38312386 75.98920167 146.05849123 75.98411608 C142.43308672 75.98196369 138.80775149 75.99177621 135.18236196 76.00132692 C126.62173464 76.02345116 118.06128288 76.02442934 109.50064087 76.01229858 C100.7026587 76.00022224 91.90531649 76.02484715 83.10744345 76.06743872 C75.52229096 76.10279365 67.93734106 76.11465428 60.35210931 76.10816324 C55.83564273 76.10455681 51.31963281 76.10961454 46.80324173 76.13759232 C42.55272737 76.16294236 38.303203 76.15868304 34.05270195 76.13277054 C32.50406353 76.12808141 30.95535328 76.1333543 29.40679741 76.15001678 C16.67188334 76.27703223 5.05517661 73.58040987 -5.00424194 65.24423218 C-15.00084688 55.24762724 -22.65492329 41.79522451 -22.86752319 27.38095093 C-22.96276988 25.93556502 -23.05925647 24.49026059 -23.15658569 23.04501343 C-23.78268688 11.04290991 -23.78268688 11.04290991 -21.55111694 6.99032593 C-19.68246807 5.3348786 -18.15508742 4.38554262 -15.86752319 3.38095093 C-14.84973471 2.87374701 -13.83194622 2.36654308 -12.78331566 1.84396935 C-8.50364583 0.02393982 -4.59982227 -0.03837088 0 0 Z " fill="#FC3644" transform="translate(149.86752319335938,286.6190490722656)"/>
<path d="M0 0 C1.01474593 -0.00785502 1.01474593 -0.00785502 2.04999179 -0.01586872 C4.30989272 -0.03083373 6.56956653 -0.03157309 8.82951355 -0.03224182 C10.45272197 -0.03986568 12.07592678 -0.04829356 13.6991272 -0.0574646 C18.10419345 -0.07939431 22.5091903 -0.08820645 26.91430497 -0.09329104 C29.66809488 -0.09693645 32.42186665 -0.10317747 35.17564964 -0.11029243 C44.7874926 -0.1347817 54.39928162 -0.14783768 64.01115417 -0.15138245 C72.96294731 -0.15501723 81.9143975 -0.18490978 90.86608583 -0.22678703 C98.55797968 -0.26150603 106.24975996 -0.27693117 113.94173163 -0.27762848 C118.53297166 -0.27842075 123.12386225 -0.28713636 127.71502113 -0.31562614 C132.03505391 -0.34183447 136.3544482 -0.34399682 140.67452431 -0.3279705 C142.25632624 -0.32615819 143.83816511 -0.33282714 145.41988754 -0.34878922 C160.95683976 -0.49597114 160.95683976 -0.49597114 167.15055847 5.27415466 C171.66394919 9.71239536 173.85481761 13.739233 174.58805847 20.02415466 C174.39396852 26.07519421 171.51946818 31.03189954 167.17790222 35.14134216 C161.55253038 39.5364925 157.64569751 40.39576878 150.49729919 40.42132568 C149.82982343 40.42500237 149.16234767 40.42867906 148.47464538 40.43246716 C146.23932992 40.44347508 144.004061 40.4473429 141.76872253 40.45115662 C140.16536818 40.45742342 138.56201527 40.46407042 136.95866394 40.47106934 C131.69451402 40.4920852 126.4303639 40.50246898 121.16618347 40.51243591 C119.35235835 40.5164843 117.53853337 40.52060125 115.72470856 40.524786 C107.20309042 40.54383173 98.68148091 40.55806442 90.15984559 40.56639796 C80.32981601 40.57617036 70.5000116 40.60249251 60.67006135 40.64289886 C53.06736889 40.67307551 45.46474092 40.68786829 37.86198974 40.69117898 C33.32331454 40.69352756 28.78488007 40.70246314 24.24626923 40.72764015 C19.97475669 40.75095328 15.70364285 40.75514118 11.43208313 40.74487877 C9.86802086 40.74438409 8.30393874 40.75068437 6.73993683 40.76443481 C-3.10970462 40.84615725 -10.00812035 40.48399917 -17.72444153 33.77415466 C-22.36627607 28.31317285 -22.27898207 23.74431325 -22.16194153 16.69993591 C-21.73151499 11.98138498 -20.8613686 9.92017164 -17.84944153 6.27415466 C-12.09065944 1.74064536 -7.28824368 0.02803148 0 0 Z " fill="#F9F5F8" transform="translate(172.8494415283203,303.72584533691406)"/>
<path d="M0 0 C1.02498596 -0.00274933 2.04997192 -0.00549866 3.10601807 -0.0083313 C4.21948105 -0.00114075 5.33294403 0.0060498 6.48014832 0.01345825 C7.66106049 0.0131662 8.84197266 0.01287415 10.05867004 0.01257324 C13.28767952 0.013726 16.51651457 0.02374114 19.74548936 0.03772116 C23.12339914 0.05024254 26.50131253 0.05140012 29.87924194 0.05377197 C36.27169045 0.05998261 42.66407036 0.07638777 49.05648869 0.09647095 C56.33577933 0.11884293 63.61507328 0.12982664 70.89438975 0.13986182 C85.86467079 0.16075439 100.83486278 0.1974254 115.80509949 0.24050903 C115.80509949 8.82050903 115.80509949 17.40050903 115.80509949 26.24050903 C100.00189181 26.33084882 84.19888914 26.4045138 68.39549828 26.44775772 C61.05749127 26.46837149 53.71965625 26.49646915 46.38175964 26.54226685 C39.98505557 26.58217124 33.58847607 26.60795048 27.19165099 26.61686301 C23.80540457 26.62207176 20.41951448 26.63428874 17.03338242 26.66342926 C13.25052947 26.69243143 9.46841667 26.69646617 5.68547058 26.6946106 C4.00664291 26.71618225 4.00664291 26.71618225 2.29389954 26.7381897 C-3.85916387 26.70549313 -7.52680581 26.38506059 -12.19490051 22.24050903 C-15.33383526 18.57841849 -15.77685211 15.14448337 -15.61286926 10.45925903 C-14.87647234 6.55016136 -13.12343043 4.90872518 -10.19490051 2.24050903 C-6.68194398 0.52949188 -3.88892623 -0.00807669 0 0 Z " fill="#0F1725" transform="translate(173.1949005126953,310.7594909667969)"/>
<path d="M0 0 C9.91433125 3.57934316 18.90883414 10.7141671 27.60107422 16.59570312 C29.67474053 17.99345114 31.75602243 19.37916059 33.83984375 20.76171875 C34.52973389 21.21957764 35.21962402 21.67743652 35.93041992 22.14916992 C37.26228121 23.03264698 38.59446433 23.91563909 39.92700195 24.7980957 C44.47458575 27.822242 44.47458575 27.822242 45.5859375 28.93359375 C45.9609375 32.24609375 45.9609375 32.24609375 45.5859375 35.93359375 C41.71618952 39.61585394 37.02486528 42.20346216 32.4609375 44.93359375 C27.38570006 47.99104173 22.33546358 51.07423556 17.35546875 54.28515625 C16.50549316 54.83171875 15.65551758 55.37828125 14.77978516 55.94140625 C13.13870952 57.00028848 11.50149116 58.06517863 9.86865234 59.13671875 C9.11922363 59.61882812 8.36979492 60.1009375 7.59765625 60.59765625 C6.94240967 61.0251416 6.28716309 61.45262695 5.61206055 61.89306641 C3.23941556 63.11155212 1.23910649 63.6663525 -1.4140625 63.93359375 C-3.70373621 62.08913437 -5.10087474 60.55996928 -6.4140625 57.93359375 C-6.52486718 56.22930403 -6.57323255 54.5207831 -6.59106445 52.81298828 C-6.60389969 51.7449295 -6.61673492 50.67687073 -6.62995911 49.57644653 C-6.63734604 48.41813324 -6.64473297 47.25981995 -6.65234375 46.06640625 C-6.6604155 44.88013641 -6.66848724 43.69386658 -6.67680359 42.47164917 C-6.69065207 39.95816514 -6.70137079 37.44466224 -6.70922852 34.93115234 C-6.72646066 31.08134525 -6.77034387 27.23239236 -6.81445312 23.3828125 C-6.82457797 20.94401675 -6.83309472 18.50521368 -6.83984375 16.06640625 C-6.85735184 14.91214142 -6.87485992 13.75787659 -6.89289856 12.56863403 C-6.88997299 11.49427094 -6.88704742 10.41990784 -6.8840332 9.31298828 C-6.88989944 8.36859894 -6.89576569 7.42420959 -6.90180969 6.45120239 C-6.14739364 2.55712692 -4.12271245 -0.11340795 0 0 Z " fill="#0D1421" transform="translate(234.4140625,216.06640625)"/>
<path d="M0 0 C2.16084757 2.45383024 3.67370892 5.20960193 5.25 8.0625 C5.69601563 8.81466797 6.14203125 9.56683594 6.6015625 10.34179688 C9.22778673 14.93768928 10.75135542 18.68867549 11 24 C10 25 10 25 7.73828125 25.5 C5 25 5 25 2.54296875 21.9375 C1.73955199 20.63609764 0.95495251 19.32292979 0.1875 18 C-0.21919922 17.33226562 -0.62589844 16.66453125 -1.04492188 15.9765625 C-2.04616957 14.32744865 -3.02525841 12.6649181 -4 11 C-21.32055501 17.41502037 -35.21980736 34.57312059 -42.90820312 50.79907227 C-47.95499699 62.03581876 -50.70721105 73.79769094 -52.5078125 85.9609375 C-53 88 -53 88 -55 90 C-57.625 89.625 -57.625 89.625 -60 89 C-60.58035949 78.537408 -59.24103715 69.99052377 -56 60 C-55.66097656 58.91976562 -55.32195312 57.83953125 -54.97265625 56.7265625 C-49.85325613 41.96957284 -40.86855158 29.98687174 -30 19 C-29.40832031 18.34773438 -28.81664062 17.69546875 -28.20703125 17.0234375 C-22.9519708 11.34018694 -16.4459519 7.21026732 -10 3 C-9.14664063 2.41734375 -8.29328125 1.8346875 -7.4140625 1.234375 C-4.46842487 -0.27180865 -3.23129565 -0.88810455 0 0 Z " fill="#111924" transform="translate(198,169)"/>
<path d="M0 0 C0.87295536 -0.00397441 1.74591073 -0.00794881 2.64531928 -0.01204365 C5.55796958 -0.02163543 8.47013038 -0.00986752 11.38276672 0.00190735 C13.47580649 -0.00052159 15.56884509 -0.0042419 17.66188049 -0.00915527 C23.33723549 -0.01855214 29.01241767 -0.00914978 34.68775916 0.00417686 C40.62628182 0.01549837 46.56479606 0.01138342 52.50332642 0.00942993 C62.47244591 0.00854739 72.44149734 0.01962086 82.41059875 0.03804016 C93.94241709 0.05922455 105.47413585 0.06271372 117.0059697 0.0564782 C128.096368 0.0507881 139.18673117 0.05642492 150.2771244 0.06765175 C154.99913494 0.07230064 159.72112401 0.07317035 164.44313622 0.0710659 C169.99911465 0.06918531 175.55499141 0.07726927 181.11094666 0.0931263 C183.15237825 0.09737622 185.19382016 0.09821497 187.23525429 0.0954361 C190.01648632 0.09222393 192.79741269 0.10127166 195.57861328 0.11352539 C196.39095906 0.10974607 197.20330485 0.10596674 198.04026717 0.10207289 C201.8629551 0.1319741 204.86111534 0.20386978 208.09883118 2.3742218 C206.98453547 2.37384478 205.87023975 2.37346775 204.72217751 2.3730793 C177.59667604 2.36527176 150.47137433 2.39188649 123.34594154 2.4545002 C110.22821014 2.48398473 97.11064067 2.50232425 83.99287415 2.49433899 C72.55811213 2.48740661 61.12360076 2.50147486 49.68890035 2.54065788 C43.63542393 2.56067054 37.58234105 2.57023671 31.52884293 2.55464554 C25.82742028 2.54029319 20.12674875 2.55408611 14.42542267 2.58917427 C12.33653729 2.59712239 10.24758388 2.59491575 8.15872574 2.58161354 C-5.90498861 2.18710878 -5.90498861 2.18710878 -18.26180458 8.18655205 C-18.80279478 8.57848307 -19.34378498 8.97041409 -19.90116882 9.3742218 C-20.56116882 9.0442218 -21.22116882 8.7142218 -21.90116882 8.3742218 C-14.99000678 2.13731947 -9.23280638 -0.08450945 0 0 Z " fill="#DF5D6A" transform="translate(149.9011688232422,286.6257781982422)"/>
<path d="M0 0 C1.9375 0.6875 1.9375 0.6875 4 2 C5.87177992 6.60745826 5.15570489 12.26511207 4 17 C1.68953926 21.57929155 -0.71326007 25.14217338 -5 28 C-6.32 28 -7.64 28 -9 28 C-9 28.66 -9 29.32 -9 30 C-13.82846491 31.23279791 -18.5837304 31.18082311 -23.53295898 31.22119141 C-24.49150756 31.23266614 -25.45005613 31.24414087 -26.43765163 31.25596333 C-29.62376648 31.29266785 -32.80990234 31.32231402 -35.99609375 31.3515625 C-38.2435837 31.37521052 -40.49107106 31.39910535 -42.73855591 31.42323303 C-48.73591081 31.48566764 -54.7333097 31.54062655 -60.73076248 31.59273911 C-64.4254877 31.62489545 -68.12019891 31.65840722 -71.81491089 31.69204712 C-127.03330837 32.18577729 -127.03330837 32.18577729 -154.5625 31.6875 C-155.65634003 31.67044006 -156.75018005 31.65338013 -157.87716675 31.63580322 C-160.83652556 31.58611297 -163.79502945 31.52173847 -166.75390625 31.44921875 C-167.58503937 31.43448013 -168.41617249 31.41974152 -169.27249146 31.40455627 C-174.76663306 31.23336694 -174.76663306 31.23336694 -177 29 C-176.17154792 28.99761165 -175.34309584 28.99522329 -174.48953915 28.99276257 C-154.32499417 28.93360866 -134.16056867 28.85805601 -113.99615383 28.76428509 C-104.24476134 28.71933285 -94.49340532 28.67991684 -84.74194336 28.65356445 C-76.24187928 28.63057977 -67.74193068 28.59717643 -59.2419582 28.55129844 C-54.7419047 28.5273726 -50.24196554 28.50863962 -45.7418499 28.50238609 C-41.50402886 28.49633236 -37.26650032 28.4763221 -33.02878761 28.44572449 C-31.47563077 28.43694889 -29.92243569 28.4332207 -28.36925507 28.43499184 C-26.24314362 28.43665044 -24.11791772 28.41989706 -21.9919281 28.39872742 C-20.80373694 28.39411845 -19.61554579 28.38950949 -18.39134884 28.38476086 C-12.4144603 27.70666112 -7.28401218 25.28401218 -3 21 C1.30465388 14.68369414 1.7479001 9.48740058 0.5 2 C0.335 1.34 0.17 0.68 0 0 Z " fill="#EB505E" transform="translate(345,315)"/>
<path d="M0 0 C0.8889905 0.42485435 1.777981 0.84970871 2.6939106 1.28743744 C12.58599509 5.77138134 20.94142258 6.85148426 31.70654297 6.71289062 C33.31975243 6.71447712 34.93296107 6.71868612 36.54615784 6.72528076 C40.87875532 6.735441 45.2103828 6.7087033 49.54282522 6.67422676 C54.09892802 6.64388479 58.65502525 6.64649666 63.21121216 6.64489746 C70.85191143 6.63754318 78.492248 6.60775937 86.1328125 6.5625 C95.92125911 6.50463324 105.70941533 6.48403535 115.49801445 6.4751358 C123.94706439 6.46716086 132.39605205 6.44217299 140.84505701 6.41444206 C143.54656361 6.40627456 146.24806805 6.40040825 148.94958115 6.39485168 C153.19987147 6.3850173 157.44998894 6.36453026 161.70019341 6.33597565 C163.25414021 6.32698494 164.80811014 6.32126552 166.36208153 6.31916046 C174.14702951 6.30625474 181.45544819 6.10953897 189 4 C184.35568891 8.90238911 178.17885681 9.77324202 171.59500122 10.2428894 C167.57075795 10.31468813 163.55896015 10.28077881 159.53515625 10.21484375 C157.94362102 10.20045262 156.35207163 10.18756732 154.76051331 10.17601013 C151.18259954 10.14758758 147.60492436 10.10990582 144.02716064 10.06658936 C137.4542749 9.98970066 130.88131077 9.94935853 124.30810547 9.91064453 C111.64102928 9.83376075 98.97422905 9.73445907 86.30737305 9.62768555 C81.01605092 9.58321581 75.72471548 9.54155724 70.43334961 9.50268555 C63.93916741 9.45484431 57.44503531 9.40258489 50.95091438 9.34705925 C48.50747926 9.32684272 46.06403145 9.30809868 43.62057304 9.29092598 C40.22152568 9.26665478 36.82257258 9.23666022 33.42358398 9.20532227 C32.44017029 9.1995668 31.45675659 9.19381134 30.44354248 9.18788147 C15.91273379 9.03641256 15.91273379 9.03641256 10 8 C9.67 7.34 9.34 6.68 9 6 C6.6859378 5.26924352 4.35171131 4.59861742 2 4 C2 3.34 2 2.68 2 2 C1.34 2 0.68 2 0 2 C0 1.34 0 0.68 0 0 Z " fill="#3D111B" transform="translate(150,355)"/>
<path d="M0 0 C0.33 0.66 0.66 1.32 1 2 C0.36971413 3.68076231 -0.29788106 5.34795544 -1 7 C-1 7.66 -1 8.32 -1 9 C-0.34 9 0.32 9 1 9 C1 8.34 1 7.68 1 7 C1.66 7.33 2.32 7.66 3 8 C2.67 8.66 2.34 9.32 2 10 C1.56988181 14.21019538 1.5300365 17.88692855 3.1875 21.8125 C5.22728091 24.27430455 7.42176233 26.11858332 10 28 C9.67 29.32 9.34 30.64 9 32 C11.83305157 33.41652578 14.22133657 33.14107369 17.39065552 33.15821838 C18.38552202 33.16562535 18.38552202 33.16562535 19.40048683 33.17318195 C21.6330368 33.18859581 23.86555793 33.19692804 26.09814453 33.20532227 C27.69448095 33.21489774 29.29081482 33.22490762 30.887146 33.23532104 C35.22984797 33.26241203 39.57256087 33.28339884 43.91530085 33.30332303 C48.45038001 33.32515677 52.98542538 33.35255821 57.52047729 33.37937927 C66.11230588 33.42934156 74.7041532 33.47426724 83.29601848 33.51740164 C93.07582853 33.56674383 102.85560467 33.62167313 112.63538194 33.67708123 C132.75688971 33.79095554 152.87842985 33.89778268 173 34 C173 34.33 173 34.66 173 35 C151.75526441 35.09349423 130.51056282 35.16400418 109.26566315 35.20724869 C99.40099708 35.22786271 89.53645895 35.25596116 79.671875 35.30175781 C71.07261999 35.34166106 62.47345763 35.36744125 53.87411261 35.37635398 C49.32194897 35.38156282 44.77005039 35.3937813 40.2179718 35.42292023 C35.93011556 35.45014448 31.64263265 35.45843089 27.35469818 35.45243073 C25.78418191 35.45352784 24.21365269 35.46144005 22.64321136 35.4768219 C12.77111476 35.5687423 5.8595635 35.22570739 -1.875 28.5 C-6.51595959 23.04004754 -6.4161281 18.47774806 -6.328125 11.4375 C-5.89134672 6.86172756 -4.82718094 4.57555236 -2 1 C-1.34 0.67 -0.68 0.34 0 0 Z " fill="#F9DFE2" transform="translate(157,309)"/>
<path d="M0 0 C0.70170515 -0.00085442 1.40341031 -0.00170885 2.12637925 -0.00258917 C4.47712143 -0.00423598 6.82779222 0.00126434 9.17852783 0.00672913 C10.86382546 0.0070112 12.54912322 0.00685288 14.23442078 0.00628662 C18.810495 0.00599942 23.38654306 0.01188372 27.9626112 0.01886058 C32.74456335 0.02510692 37.52651608 0.02569893 42.30847168 0.02688599 C51.3642071 0.02999551 60.41993046 0.03820382 69.47566056 0.04823548 C79.78510813 0.05940834 90.09455627 0.06491003 100.40400839 0.06993091 C121.61173254 0.08038673 142.81944583 0.09797888 164.02716064 0.12025452 C164.02716064 0.78025452 164.02716064 1.44025452 164.02716064 2.12025452 C165.67716064 2.45025452 167.32716064 2.78025452 169.02716064 3.12025452 C169.02716064 3.78025452 169.02716064 4.44025452 169.02716064 5.12025452 C170.01716064 5.45025452 171.00716064 5.78025452 172.02716064 6.12025452 C172.35716064 8.10025452 172.68716064 10.08025452 173.02716064 12.12025452 C172.36716064 11.39837952 171.70716064 10.67650452 171.02716064 9.93275452 C162.70321642 1.88704155 155.24911466 1.39862556 144.00762939 1.489151 C142.3839744 1.48400721 140.760325 1.47672247 139.13668823 1.46746826 C134.74399123 1.44900436 130.35190371 1.4618609 125.95923233 1.48155856 C121.35320623 1.49798795 116.74721742 1.48912621 112.14117432 1.48403931 C104.40743313 1.47952314 96.67393419 1.49535859 88.94024658 1.52333069 C80.01055829 1.55538045 71.08130679 1.55536529 62.15158749 1.53811592 C53.5466307 1.52222899 44.9418334 1.52899831 36.33688354 1.54605293 C32.68154634 1.55290927 29.02633753 1.55190558 25.3710022 1.54450798 C21.06324676 1.53682305 16.75598589 1.54904286 12.44831467 1.57635689 C10.87137698 1.58321874 9.2943929 1.58336237 7.71745682 1.57614136 C-0.43178977 1.54313643 -6.92943833 1.63471414 -13.97283936 6.12025452 C-14.96283936 6.45025452 -15.95283936 6.78025452 -16.97283936 7.12025452 C-18.14237351 9.54408528 -18.14237351 9.54408528 -18.97283936 12.12025452 C-19.30283936 12.78025452 -19.63283936 13.44025452 -19.97283936 14.12025452 C-20.68843135 23.17748177 -20.68843135 23.17748177 -18.28533936 31.74525452 C-14.48622056 35.64705219 -11.16392061 38.34045523 -5.97283936 40.12025452 C-9.24469489 41.1933631 -11.40231528 41.01288554 -14.72283936 40.18275452 C-15.92166748 39.89078186 -15.92166748 39.89078186 -17.14471436 39.59291077 C-18.04963623 39.35894592 -18.04963623 39.35894592 -18.97283936 39.12025452 C-19.09401123 38.5053717 -19.21518311 37.89048889 -19.34002686 37.25697327 C-19.50760498 36.44873108 -19.67518311 35.64048889 -19.84783936 34.80775452 C-20.01026123 34.0072467 -20.17268311 33.20673889 -20.34002686 32.38197327 C-20.91762935 29.86724334 -20.91762935 29.86724334 -22.97283936 27.12025452 C-23.42205811 24.52650452 -23.42205811 24.52650452 -23.66033936 21.62025452 C-23.74670654 20.66119202 -23.83307373 19.70212952 -23.92205811 18.71400452 C-23.97283936 16.12025452 -23.97283936 16.12025452 -22.97283936 13.12025452 C-22.31283936 13.12025452 -21.65283936 13.12025452 -20.97283936 13.12025452 C-20.80783936 12.06837952 -20.64283936 11.01650452 -20.47283936 9.93275452 C-19.27335641 5.64764515 -16.7730317 4.20705697 -13.04315186 2.06556702 C-8.68041292 0.07352395 -4.78148354 -0.00350549 0 0 Z " fill="#D74555" transform="translate(171.97283935546875,302.87974548339844)"/>
<path d="M0 0 C0.99 0.495 0.99 0.495 2 1 C-6.47931783 13.67387398 -16.02943808 21.23825786 -31 25 C-34.41026783 25.25726891 -34.41026783 25.25726891 -38.03852844 25.26742554 C-39.04759563 25.27422221 -39.04759563 25.27422221 -40.077048 25.28115618 C-42.31226042 25.29373124 -44.54722702 25.29218434 -46.7824707 25.29052734 C-48.39287628 25.29651691 -50.003279 25.30332345 -51.61367798 25.31088257 C-55.97538149 25.32850614 -60.33700647 25.33323641 -64.69874215 25.33451414 C-67.42743188 25.33593836 -70.15610181 25.34021309 -72.88478661 25.34550858 C-82.41465898 25.36399679 -91.94447552 25.3721807 -101.47436523 25.37060547 C-110.34090719 25.36940439 -119.2072056 25.39050316 -128.07368594 25.4220928 C-135.70025881 25.44829123 -143.3267523 25.45897127 -150.9533698 25.45769465 C-155.50211007 25.45718607 -160.05063377 25.46281176 -164.59932899 25.48405075 C-168.87993438 25.50349341 -173.16011793 25.50351672 -177.44073868 25.48901749 C-179.00556877 25.48693574 -180.5704257 25.49159225 -182.13521004 25.5037384 C-190.79615085 25.56657543 -198.19781592 25.1344321 -206 21 C-202.54594336 19.80571874 -200.63846497 20.24009632 -197.22462463 21.41323853 C-189.98968299 23.51198216 -182.86404838 23.42155282 -175.40600586 23.38818359 C-173.86397431 23.39225717 -172.32194568 23.39760344 -170.77992249 23.40411377 C-166.62293631 23.41769866 -162.46617546 23.41252585 -158.30918574 23.40297651 C-153.94167814 23.3953352 -149.57418872 23.40243774 -145.2066803 23.40713501 C-137.87595181 23.41257904 -130.54531426 23.40543599 -123.21459961 23.39111328 C-114.75926078 23.37478327 -106.30413896 23.38008327 -97.84880537 23.3965925 C-90.56609084 23.41023876 -83.28344136 23.41211189 -76.00071818 23.40427649 C-71.66112213 23.39961798 -67.32162786 23.39892478 -62.9820385 23.40888596 C-58.90168234 23.41759946 -54.82160407 23.41145437 -50.74127769 23.39420319 C-49.25063283 23.39026188 -47.75996427 23.39133162 -46.26932907 23.39799118 C-36.27317082 23.43850747 -27.1717702 23.3039272 -19 17 C-18.19691406 16.69578125 -17.39382813 16.3915625 -16.56640625 16.078125 C-9.614716 13.15778024 -3.6647437 6.4965911 0 0 Z " fill="#DB4451" transform="translate(361,337)"/>
<path d="M0 0 C0.92425781 0.00064453 1.84851563 0.00128906 2.80078125 0.00195312 C4.24517578 0.02612305 4.24517578 0.02612305 5.71875 0.05078125 C6.68167969 0.04755859 7.64460938 0.04433594 8.63671875 0.04101562 C15.81798115 0.09610202 15.81798115 0.09610202 19.21875 2.36328125 C19.53125 5.36328125 19.53125 5.36328125 19.21875 8.36328125 C16.64886319 10.93316806 15.62964947 10.620349 12.0625 10.62890625 C10.52916016 10.63277344 10.52916016 10.63277344 8.96484375 10.63671875 C7.89363281 10.62898438 6.82242187 10.62125 5.71875 10.61328125 C4.11193359 10.62488281 4.11193359 10.62488281 2.47265625 10.63671875 C1.45042969 10.63414062 0.42820312 10.6315625 -0.625 10.62890625 C-1.56537109 10.62665039 -2.50574219 10.62439453 -3.47460938 10.62207031 C-5.78125 10.36328125 -5.78125 10.36328125 -7.78125 8.36328125 C-8.13949348 5.56898213 -8.27369558 4.02384775 -6.56054688 1.72583008 C-4.24848636 -0.04469815 -2.8918625 -0.01020203 0 0 Z " fill="#161A28" transform="translate(339.78125,248.63671875)"/>
<path d="M0 0 C2.4375 0.8125 2.4375 0.8125 4.4375 2.8125 C4.88619661 6.10493604 4.76158242 9.43047743 4.75 12.75 C4.76611328 13.66974609 4.78222656 14.58949219 4.79882812 15.53710938 C4.79979492 16.86258789 4.79979492 16.86258789 4.80078125 18.21484375 C4.80525269 19.42901978 4.80525269 19.42901978 4.80981445 20.66772461 C4.34863797 23.32440356 3.56819139 24.20407738 1.4375 25.8125 C-1.125 26.1875 -1.125 26.1875 -3.5625 25.8125 C-6.41049817 21.54050275 -5.89268316 17.83451715 -5.875 12.8125 C-5.89111328 11.89726562 -5.90722656 10.98203125 -5.92382812 10.0390625 C-5.92447266 9.15992188 -5.92511719 8.28078125 -5.92578125 7.375 C-5.92876221 6.57191406 -5.93174316 5.76882812 -5.93481445 4.94140625 C-5.29175425 1.26436691 -3.72430984 -0.27251048 0 0 Z " fill="#0B131D" transform="translate(249.5625,157.1875)"/>
<path d="M0 0 C2.33944736 0.28730055 4.6739143 0.61936779 7 1 C7.98313668 3.54018564 8.26770421 5.3094917 7.27099609 7.88037109 C6.14152372 10.02765501 4.93852699 12.10872583 3.6875 14.1875 C3.06198242 15.27321289 3.06198242 15.27321289 2.42382812 16.38085938 C0.76733941 19.22093173 -0.66505396 21.66505396 -3 24 C-5.5 24.25 -5.5 24.25 -8 24 C-8.66 23.34 -9.32 22.68 -10 22 C-9.7736037 16.26934365 -7.90244975 12.38461165 -5 7.625 C-4.63132812 6.99722656 -4.26265625 6.36945313 -3.8828125 5.72265625 C-1.21552579 1.21552579 -1.21552579 1.21552579 0 0 Z " fill="#151D29" transform="translate(295,170)"/>
<path d="M0 0 C2 2 2 2 2.44921875 4.3359375 C1.79685857 8.204717 -0.12463216 9.27019275 -3.1875 11.625 C-4.15042969 12.38039062 -5.11335938 13.13578125 -6.10546875 13.9140625 C-13.24365482 19.0581804 -13.24365482 19.0581804 -17.25 18.75 C-20 18 -20 18 -21 17 C-21.31640625 14.65625 -21.31640625 14.65625 -21 12 C-19.27734375 10.15625 -19.27734375 10.15625 -16.9375 8.5 C-16.11636719 7.91089844 -15.29523438 7.32179687 -14.44921875 6.71484375 C-13.64097656 6.14894531 -12.83273437 5.58304688 -12 5 C-11.34644531 4.48566406 -10.69289063 3.97132813 -10.01953125 3.44140625 C-6.65993221 0.82344055 -4.32122958 -0.86424592 0 0 Z " fill="#121822" transform="translate(337,202)"/>
<path d="M0 0 C3.375 -0.125 3.375 -0.125 7 0 C9.61815739 2.61815739 9.26112488 4.50468338 9.2734375 8.07226562 C9.26570313 8.85279297 9.25796875 9.63332031 9.25 10.4375 C9.25773437 11.21416016 9.26546875 11.99082031 9.2734375 12.79101562 C9.25996806 16.70052168 9.21368645 18.67947032 7 22 C4 22.3125 4 22.3125 1 22 C-1 20 -1 20 -1.24291992 18.15234375 C-1.23881104 17.42144531 -1.23470215 16.69054687 -1.23046875 15.9375 C-1.22853516 15.14085937 -1.22660156 14.34421875 -1.22460938 13.5234375 C-1.21236328 12.69070313 -1.20011719 11.85796875 -1.1875 11 C-1.18685547 10.16726563 -1.18621094 9.33453125 -1.18554688 8.4765625 C-1.14043257 2.28086515 -1.14043257 2.28086515 0 0 Z " fill="#08111C" transform="translate(308,313)"/>
<path d="M0 0 C3.0625 0.1875 3.0625 0.1875 5.0625 2.1875 C5.32128906 4.03515625 5.32128906 4.03515625 5.328125 6.25 C5.33070313 7.04664063 5.33328125 7.84328125 5.3359375 8.6640625 C5.32820313 9.49679687 5.32046875 10.32953125 5.3125 11.1875 C5.32023437 12.02023437 5.32796875 12.85296875 5.3359375 13.7109375 C5.33335937 14.50757813 5.33078125 15.30421875 5.328125 16.125 C5.32586914 16.85589844 5.32361328 17.58679688 5.32128906 18.33984375 C5.0625 20.1875 5.0625 20.1875 3.0625 22.1875 C-0.0625 22.3125 -0.0625 22.3125 -2.9375 22.1875 C-4.10331918 19.85586164 -4.06655609 18.46596518 -4.0703125 15.87109375 C-4.07160156 15.02482422 -4.07289063 14.17855469 -4.07421875 13.30664062 C-4.07035156 12.42169922 -4.06648438 11.53675781 -4.0625 10.625 C-4.06636719 9.73619141 -4.07023437 8.84738281 -4.07421875 7.93164062 C-4.07292969 7.08666016 -4.07164062 6.24167969 -4.0703125 5.37109375 C-4.06918457 4.59306396 -4.06805664 3.81503418 -4.06689453 3.01342773 C-3.84697509 -0.089926 -3.15285544 0.20124609 0 0 Z " fill="#09101E" transform="translate(326.9375,312.8125)"/>
<path d="M0 0 C0.99 0 1.98 0 3 0 C3.33 0.99 3.66 1.98 4 3 C3.67 3.66 3.34 4.32 3 5 C3.66 5 4.32 5 5 5 C4.68458838 8.33531013 4.34919911 11.66805845 4 15 C3.9278125 15.71027344 3.855625 16.42054688 3.78125 17.15234375 C3.23516187 21.76483813 3.23516187 21.76483813 1 24 C-1.625 23.625 -1.625 23.625 -4 23 C-4.55895083 8.26025969 -4.55895083 8.26025969 -1 1 C-0.67 0.67 -0.34 0.34 0 0 Z " fill="#0F1522" transform="translate(142,235)"/>
<path d="M0 0 C0.515625 0.2475 1.03125 0.495 1.5625 0.75 C-1.4201906 2.27448631 -4.255702 3.68940067 -7.4375 4.75 C-8.60703416 7.17383077 -8.60703416 7.17383077 -9.4375 9.75 C-9.7675 10.41 -10.0975 11.07 -10.4375 11.75 C-11.15309199 20.80722726 -11.15309199 20.80722726 -8.75 29.375 C-4.95088121 33.27679768 -1.62858125 35.97020071 3.5625 37.75 C0.29064447 38.82310858 -1.86697592 38.64263102 -5.1875 37.8125 C-6.38632813 37.52052734 -6.38632813 37.52052734 -7.609375 37.22265625 C-8.51429688 36.98869141 -8.51429688 36.98869141 -9.4375 36.75 C-9.55867187 36.13511719 -9.67984375 35.52023437 -9.8046875 34.88671875 C-9.97226563 34.07847656 -10.13984375 33.27023437 -10.3125 32.4375 C-10.55613281 31.23673828 -10.55613281 31.23673828 -10.8046875 30.01171875 C-11.38228999 27.49698882 -11.38228999 27.49698882 -13.4375 24.75 C-13.88671875 22.15625 -13.88671875 22.15625 -14.125 19.25 C-14.21136719 18.2909375 -14.29773438 17.331875 -14.38671875 16.34375 C-14.4375 13.75 -14.4375 13.75 -13.4375 10.75 C-12.7775 10.75 -12.1175 10.75 -11.4375 10.75 C-11.251875 9.6775 -11.06625 8.605 -10.875 7.5 C-9.97250516 4.30555784 -8.89799734 2.97437097 -6.0625 1.25 C-2.4375 -0.25 -2.4375 -0.25 0 0 Z " fill="#E35D69" transform="translate(162.4375,305.25)"/>
<path d="M0 0 C1.9375 0.6875 1.9375 0.6875 4 2 C5.87776371 6.6221876 5.13352496 12.24764379 4 17 C1.85512341 21.70139616 -0.72395609 25.79122579 -5.5 28.0625 C-8.85884683 28.96219112 -11.54447497 29.2528433 -15 29 C-14.13375 28.58621094 -14.13375 28.58621094 -13.25 28.1640625 C-7.19799096 25.03298838 -2.37517785 21.44534368 0.38671875 15.08203125 C1.86786719 10.0536738 1.26024928 5.04099714 0 0 Z " fill="#E75660" transform="translate(345,315)"/>
<path d="M0 0 C2.46800047 1.15173355 4.04783565 2.04783565 6 4 C6.45700401 7.26849268 6.3314858 10.57827094 6.3125 13.875 C6.30903564 14.82648926 6.30557129 15.77797852 6.30200195 16.75830078 C6.1506662 26.57589401 4.22911811 35.13899064 0 44 C-0.5625 42.0625 -0.5625 42.0625 -1 40 C-0.505 39.505 -0.505 39.505 0 39 C0.23192865 37.48530552 0.41215238 35.96245438 0.5625 34.4375 C0.64628906 33.61121094 0.73007812 32.78492188 0.81640625 31.93359375 C0.87699219 31.29550781 0.93757813 30.65742188 1 30 C1.66 30 2.32 30 3 30 C3 21.42 3 12.84 3 4 C2.01 3.67 1.02 3.34 0 3 C0 2.01 0 1.02 0 0 Z " fill="#CE424D" transform="translate(364,292)"/>
<path d="M0 0 C0 3.90838866 -1.50567876 5.11594107 -4 8 C-2.35 8 -0.7 8 1 8 C1 11 1 11 -0.3125 12.38671875 C-1.875 13.59114583 -3.4375 14.79557292 -5 16 C-5 15.34 -5 14.68 -5 14 C-5.9075 14.309375 -6.815 14.61875 -7.75 14.9375 C-10.16563338 15.7272263 -12.52780285 16.42949297 -15 17 C-12.17621696 12.46850055 -9.08293633 8.82715373 -5.25 5.125 C-4.74339844 4.62742188 -4.23679688 4.12984375 -3.71484375 3.6171875 C-2.48114693 2.40676798 -1.24122216 1.20270147 0 0 Z " fill="#161D29" transform="translate(173,183)"/>
<path d="M0 0 C-1.32 0.33 -2.64 0.66 -4 1 C-4.2165625 1.8971875 -4.2165625 1.8971875 -4.4375 2.8125 C-4.8872439 4.56150404 -5.42892341 6.28677023 -6 8 C-5.01 8 -4.02 8 -3 8 C-3.33 8.99 -3.66 9.98 -4 11 C-6.25 12.0625 -6.25 12.0625 -9 13 C-9.928125 13.37125 -10.85625 13.7425 -11.8125 14.125 C-12.534375 14.41375 -13.25625 14.7025 -14 15 C-13.67 12.36 -13.34 9.72 -13 7 C-13.66 6.67 -14.32 6.34 -15 6 C-13.44632634 4.98634107 -11.88162164 3.98957744 -10.3125 3 C-9.44238281 2.443125 -8.57226562 1.88625 -7.67578125 1.3125 C-4.83026663 -0.08325608 -3.1211406 -0.26993648 0 0 Z " fill="#1C232F" transform="translate(198,169)"/>
<path d="M0 0 C0.66 0.33 1.32 0.66 2 1 C-5.8635798 12.75354215 -14.95559119 21.13161231 -29.125 24.3125 C-31.043125 24.6528125 -31.043125 24.6528125 -33 25 C-33 24.34 -33 23.68 -33 23 C-32.32453125 22.81824219 -31.6490625 22.63648438 -30.953125 22.44921875 C-30.06109375 22.19785156 -29.1690625 21.94648438 -28.25 21.6875 C-27.36828125 21.44386719 -26.4865625 21.20023437 -25.578125 20.94921875 C-22.91242498 19.96775647 -21.2397646 18.71509533 -19 17 C-17.79537109 16.54367187 -17.79537109 16.54367187 -16.56640625 16.078125 C-9.614716 13.15778024 -3.6647437 6.4965911 0 0 Z " fill="#CA3F50" transform="translate(361,337)"/>
<path d="M0 0 C0.33 0 0.66 0 1 0 C1.33 5.94 1.66 11.88 2 18 C3.32 18.33 4.64 18.66 6 19 C6.33 18.01 6.66 17.02 7 16 C7 16.99 7 17.98 7 19 C7.66 19 8.32 19 9 19 C9 12.73 9 6.46 9 0 C9.33 0 9.66 0 10 0 C10.08706892 3.27066566 10.14041241 6.54103365 10.1875 9.8125 C10.22520508 11.2056543 10.22520508 11.2056543 10.26367188 12.62695312 C10.27817383 13.9659668 10.27817383 13.9659668 10.29296875 15.33203125 C10.31653442 16.56530151 10.31653442 16.56530151 10.34057617 17.82348633 C9.91878681 20.51900759 9.15956438 21.37992531 7 23 C4.4375 23.375 4.4375 23.375 2 23 C-0.13604308 19.79593538 -0.24208908 19.00399253 -0.1953125 15.33203125 C-0.18564453 13.99301758 -0.18564453 13.99301758 -0.17578125 12.62695312 C-0.15902344 11.69818359 -0.14226562 10.76941406 -0.125 9.8125 C-0.11597656 8.87212891 -0.10695312 7.93175781 -0.09765625 6.96289062 C-0.07409056 4.64167032 -0.04119116 2.32096356 0 0 Z " fill="#3B4148" transform="translate(244,160)"/>
<path d="M0 0 C0.33 0 0.66 0 1 0 C1.15051702 4.0523812 1.25820666 8.1036384 1.32958984 12.15820312 C1.35940316 13.53153891 1.40007124 14.90469053 1.45263672 16.27734375 C1.8293132 26.3811364 0.3980668 33.39473905 -5 42 C-5.66 42 -6.32 42 -7 42 C-6.566875 40.7625 -6.13375 39.525 -5.6875 38.25 C-5.11836836 36.50214548 -4.55630385 34.75197953 -4 33 C-3.72542969 32.1646875 -3.45085937 31.329375 -3.16796875 30.46875 C-0.26664231 20.52134506 -0.26169499 10.28851683 0 0 Z " fill="#43111C" transform="translate(370,296)"/>
<path d="M0 0 C2.375 0.25 2.375 0.25 5 1 C6.3125 3.0625 6.3125 3.0625 7 5 C6.34 5.66 5.68 6.32 5 7 C4.34 7 3.68 7 3 7 C3 7.66 3 8.32 3 9 C1.02 8.34 -0.96 7.68 -3 7 C-2.38722388 4.03824877 -1.74627478 2.61941217 0 0 Z " fill="#09111D" transform="translate(194,170)"/>
<path d="M0 0 C0.33 0 0.66 0 1 0 C1 5.28 1 10.56 1 16 C4.465 15.505 4.465 15.505 8 15 C8.5625 16.9375 8.5625 16.9375 9 19 C8 20 8 20 5.0625 20.1875 C2 20 2 20 0 18 C-0.22705078 16.12060547 -0.22705078 16.12060547 -0.1953125 13.8671875 C-0.18886719 13.06152344 -0.18242187 12.25585938 -0.17578125 11.42578125 C-0.15064453 10.16314453 -0.15064453 10.16314453 -0.125 8.875 C-0.11597656 8.02550781 -0.10695313 7.17601562 -0.09765625 6.30078125 C-0.07405647 4.20040116 -0.03818483 2.10016556 0 0 Z " fill="#363C44" transform="translate(307,315)"/>
<path d="M0 0 C0 0.66 0 1.32 0 2 C0.66 2 1.32 2 2 2 C2 3.65 2 5.3 2 7 C1.01 7 0.02 7 -1 7 C-0.67 11.95 -0.34 16.9 0 22 C-1.32 22.33 -2.64 22.66 -4 23 C-3.67 22.34 -3.34 21.68 -3 21 C-2.90534655 19.64842019 -2.86927838 18.29238852 -2.8671875 16.9375 C-2.86589844 16.14085937 -2.86460937 15.34421875 -2.86328125 14.5234375 C-2.86714844 13.69070313 -2.87101562 12.85796875 -2.875 12 C-2.87113281 11.16726563 -2.86726563 10.33453125 -2.86328125 9.4765625 C-2.86457031 8.67992187 -2.86585938 7.88328125 -2.8671875 7.0625 C-2.86831543 6.33160156 -2.86944336 5.60070312 -2.87060547 4.84765625 C-2.88798205 2.90433947 -2.88798205 2.90433947 -4 1 C-2 0 -2 0 0 0 Z " fill="#F2F4F4" transform="translate(334,312)"/>
<path d="M0 0 C0.515625 0.2475 1.03125 0.495 1.5625 0.75 C-1.4201906 2.27448631 -4.255702 3.68940067 -7.4375 4.75 C-9.83024653 9.3859464 -10.98143642 14.75084839 -12.4375 19.75 C-12.7675 19.75 -13.0975 19.75 -13.4375 19.75 C-14.5625 14.125 -14.5625 14.125 -13.4375 10.75 C-12.7775 10.75 -12.1175 10.75 -11.4375 10.75 C-11.251875 9.6775 -11.06625 8.605 -10.875 7.5 C-9.97250516 4.30555784 -8.89799734 2.97437097 -6.0625 1.25 C-2.4375 -0.25 -2.4375 -0.25 0 0 Z " fill="#E34D5C" transform="translate(162.4375,305.25)"/>
<path d="M0 0 C1.98 0 3.96 0 6 0 C6 0.66 6 1.32 6 2 C7.65 2.33 9.3 2.66 11 3 C11 3.66 11 4.32 11 5 C11.99 5.33 12.98 5.66 14 6 C14.33 7.98 14.66 9.96 15 12 C14.34 11.278125 13.68 10.55625 13 9.8125 C10.23228793 7.02099671 7.14672508 5.09568757 3.76953125 3.11328125 C2 2 2 2 0 0 Z " fill="#E54F5D" transform="translate(330,303)"/>
<path d="M0 0 C0.95519531 0.40992188 1.91039062 0.81984375 2.89453125 1.2421875 C10.52893617 4.44802373 17.71252502 7.00067869 26 8 C22.4908758 9.13005694 19.46707065 8.98574145 15.8125 8.6875 C14.74644531 8.60886719 13.68039063 8.53023438 12.58203125 8.44921875 C11.72996094 8.30097656 10.87789062 8.15273438 10 8 C9.67 7.34 9.34 6.68 9 6 C6.6859378 5.26924352 4.35171131 4.59861742 2 4 C2 3.34 2 2.68 2 2 C1.34 2 0.68 2 0 2 C0 1.34 0 0.68 0 0 Z " fill="#320A15" transform="translate(150,355)"/>
<path d="M0 0 C3.875 1.875 3.875 1.875 5 3 C5.09912839 4.49085365 5.13079747 5.98632452 5.1328125 7.48046875 C5.13410156 8.39763672 5.13539063 9.31480469 5.13671875 10.25976562 C5.13285156 11.22591797 5.12898438 12.19207031 5.125 13.1875 C5.12886719 14.13431641 5.13273437 15.08113281 5.13671875 16.05664062 C5.1300757 20.81638754 4.99094167 25.32055321 4 30 C3.67 30 3.34 30 3 30 C3 21.42 3 12.84 3 4 C2.01 3.67 1.02 3.34 0 3 C0 2.01 0 1.02 0 0 Z " fill="#E94550" transform="translate(364,292)"/>
<path d="M0 0 C1.9375 0.6875 1.9375 0.6875 4 2 C5.83706555 6.52200751 4.9998009 12.30528275 4 17 C3.34 17.33 2.68 17.66 2 18 C1.93941406 17.11957031 1.87882812 16.23914063 1.81640625 15.33203125 C1.73261719 14.17058594 1.64882813 13.00914062 1.5625 11.8125 C1.48128906 10.66394531 1.40007812 9.51539063 1.31640625 8.33203125 C1.04596188 5.48401829 0.62478253 2.78789518 0 0 Z " fill="#F5464B" transform="translate(345,315)"/>
<path d="M0 0 C3.26005309 2.81550039 4.72943854 5.65824388 5.2265625 9.9609375 C5.41018002 14.45122056 4.84938391 16.62434466 2 20 C2.02320313 19.20335937 2.04640625 18.40671875 2.0703125 17.5859375 C2.16606543 11.96387241 2.2182408 7.2683219 0 2 C0 1.34 0 0.68 0 0 Z " fill="#FCCFCE" transform="translate(342,312)"/>
<path d="M0 0 C3.375 -0.125 3.375 -0.125 7 0 C9 2 9 2 9.1953125 5.9140625 C9.18200376 7.48449351 9.15813602 9.05486221 9.125 10.625 C9.11597656 11.42679687 9.10695313 12.22859375 9.09765625 13.0546875 C9.07406223 15.03658523 9.03819065 17.01832981 9 19 C8.67 19 8.34 19 8 19 C8 14.38 8 9.76 8 5 C5.525 4.01 5.525 4.01 3 3 C1.1875 1.375 1.1875 1.375 0 0 Z " fill="#272D35" transform="translate(308,313)"/>
<path d="M0 0 C1.32 0.66 2.64 1.32 4 2 C3.01 3.485 3.01 3.485 2 5 C0.68 5 -0.64 5 -2 5 C-2.680625 5.350625 -3.36125 5.70125 -4.0625 6.0625 C-6 7 -6 7 -9 6 C-6.03 4.02 -3.06 2.04 0 0 Z " fill="#E1E5E9" transform="translate(192,179)"/>
<path d="M0 0 C-1.27222115 3.81666346 -2.53979577 4.11261588 -6 6 C-6.886875 6.5775 -7.77375 7.155 -8.6875 7.75 C-9.450625 8.1625 -10.21375 8.575 -11 9 C-11.66 8.67 -12.32 8.34 -13 8 C-11.59466816 6.65472507 -10.17527548 5.3241269 -8.75 4 C-7.96109375 3.2575 -7.1721875 2.515 -6.359375 1.75 C-4 0 -4 0 0 0 Z " fill="#424551" transform="translate(140,138)"/>
<path d="M0 0 C0.33 0.66 0.66 1.32 1 2 C2.98 1.67 4.96 1.34 7 1 C6.67 1.61875 6.34 2.2375 6 2.875 C4.57523193 5.90263216 4.92163482 6.76490445 6 10 C5.34 10.66 4.68 11.32 4 12 C3.32645501 10.56570999 2.66140299 9.12742943 2 7.6875 C1.62875 6.88699219 1.2575 6.08648437 0.875 5.26171875 C0 3 0 3 0 0 Z " fill="#414554" transform="translate(112,333)"/>
<path d="M0 0 C0.33 0.99 0.66 1.98 1 3 C-1.64868147 7.76762664 -5.06965792 11.24830983 -9 15 C-9.99 14.67 -10.98 14.34 -12 14 C-11.319375 13.54625 -10.63875 13.0925 -9.9375 12.625 C-5.83211061 8.95635416 -3.02685898 4.57081875 0 0 Z " fill="#3C0C19" transform="translate(362,338)"/>
<path d="M0 0 C2.6875 0.875 2.6875 0.875 5 2 C5 2.66 5 3.32 5 4 C4.34 4 3.68 4 3 4 C3.33 4.99 3.66 5.98 4 7 C3.01 7 2.02 7 1 7 C1 6.34 1 5.68 1 5 C-0.32 4.67 -1.64 4.34 -3 4 C-3 3.34 -3 2.68 -3 2 C-2.01 1.34 -1.02 0.68 0 0 Z " fill="#F8F7F9" transform="translate(157,331)"/>
<path d="M0 0 C-1.423125 0.928125 -1.423125 0.928125 -2.875 1.875 C-5.94445109 3.81970969 -5.94445109 3.81970969 -8 6 C-8 5.01 -8 4.02 -8 3 C-8.66 3 -9.32 3 -10 3 C-9.67 3.99 -9.34 4.98 -9 6 C-10.32 6.33 -11.64 6.66 -13 7 C-13 4 -13 4 -11 2 C-9.16015625 1.11328125 -9.16015625 1.11328125 -7.0625 0.3125 C-6.37285156 0.04050781 -5.68320313 -0.23148437 -4.97265625 -0.51171875 C-3 -1 -3 -1 0 0 Z " fill="#525561" transform="translate(160,128)"/>
<path d="M0 0 C-1.95245185 1.19714555 -3.91214997 2.38248074 -5.875 3.5625 C-6.96554688 4.22378906 -8.05609375 4.88507813 -9.1796875 5.56640625 C-10.57574219 6.27603516 -10.57574219 6.27603516 -12 7 C-12.66 6.67 -13.32 6.34 -14 6 C-5.2967033 -1.51648352 -5.2967033 -1.51648352 0 0 Z " fill="#DF5564" transform="translate(142,289)"/>
<path d="M0 0 C1.32 0 2.64 0 4 0 C4.185625 0.598125 4.37125 1.19625 4.5625 1.8125 C6.72273753 5.09981799 9.35107655 5.64854687 13 7 C12.67 7.66 12.34 8.32 12 9 C7.50985376 7.50328459 3.52151236 5.16631659 0 2 C0 1.34 0 0.68 0 0 Z " fill="#CC4150" transform="translate(143,348)"/>
<path d="M0 0 C3.14703761 1.57351881 3.7416747 4.30201662 5.1875 7.4375 C5.73792969 8.61183594 6.28835937 9.78617187 6.85546875 10.99609375 C7.23316406 11.98738281 7.61085937 12.97867187 8 14 C7.67 14.66 7.34 15.32 7 16 C0 5.23282443 0 5.23282443 0 0 Z " fill="#D54653" transform="translate(130,326)"/>
<path d="M0 0 C2.46301423 2.46301423 2.76766521 4.27360036 3.625 7.625 C3.88539063 8.62789063 4.14578125 9.63078125 4.4140625 10.6640625 C4.60742188 11.43492187 4.80078125 12.20578125 5 13 C4.01 13.495 4.01 13.495 3 14 C3 12.68 3 11.36 3 10 C2.34 10 1.68 10 1 10 C-0.60725635 6.78548731 -0.05748185 3.56387464 0 0 Z " fill="#411019" transform="translate(128,323)"/>
<path d="M0 0 C0.99 0.495 0.99 0.495 2 1 C3.66565749 1.15222973 5.33656496 1.24917215 7.0078125 1.31640625 C7.99394531 1.35830078 8.98007812 1.40019531 9.99609375 1.44335938 C11.54490234 1.50233398 11.54490234 1.50233398 13.125 1.5625 C14.68541016 1.62727539 14.68541016 1.62727539 16.27734375 1.69335938 C18.85142528 1.7996288 21.42560508 1.90166583 24 2 C24 2.33 24 2.66 24 3 C16.41 3.33 8.82 3.66 1 4 C0.67 2.68 0.34 1.36 0 0 Z " fill="#D7D9E2" transform="translate(332,257)"/>
<path d="M0 0 C1.32 0.66 2.64 1.32 4 2 C1.03 3.65 -1.94 5.3 -5 7 C-5.33 6.01 -5.66 5.02 -6 4 C-5.34 4 -4.68 4 -4 4 C-4 3.34 -4 2.68 -4 2 C-2.25 0.875 -2.25 0.875 0 0 Z " fill="#191F2A" transform="translate(263,259)"/>
<path d="M0 0 C-0.99 0.66 -1.98 1.32 -3 2 C-3.33 2.99 -3.66 3.98 -4 5 C-6.06640625 5.73046875 -6.06640625 5.73046875 -8.5625 6.1875 C-9.38878906 6.34605469 -10.21507812 6.50460938 -11.06640625 6.66796875 C-12.02353516 6.83232422 -12.02353516 6.83232422 -13 7 C-5.875 -0.31756757 -5.875 -0.31756757 0 0 Z " fill="#272C33" transform="translate(337,202)"/>
<path d="M0 0 C1.65 0 3.3 0 5 0 C5.33 1.32 5.66 2.64 6 4 C6.99 3.67 7.98 3.34 9 3 C9.33 4.32 9.66 5.64 10 7 C5.56541027 5.6062718 3.12621626 3.39417765 0 0 Z " fill="#383F4A" transform="translate(133,365)"/>
<path d="M0 0 C5.05531868 0.77774134 10.01716284 1.85948394 15 3 C14.67 3.66 14.34 4.32 14 5 C8.72250715 4.46148032 4.74354436 3.22656164 0 1 C0 0.67 0 0.34 0 0 Z " fill="#BC3948" transform="translate(155,357)"/>
<path d="M0 0 C0.99 0.33 1.98 0.66 3 1 C1.02 3.31 -0.96 5.62 -3 8 C-3.66 7.67 -4.32 7.34 -5 7 C-4.6189482 4.23737447 -4.16402868 3.15856106 -2.125 1.1875 C-1.42375 0.795625 -0.7225 0.40375 0 0 Z " fill="#373A45" transform="translate(374,351)"/>
<path d="M0 0 C0.33 0.99 0.66 1.98 1 3 C0.01 3.495 0.01 3.495 -1 4 C-1 4.66 -1 5.32 -1 6 C-1.66 6 -2.32 6 -3 6 C-3 6.66 -3 7.32 -3 8 C-4.65 7.67 -6.3 7.34 -8 7 C-5.42215154 4.35247996 -3.08351902 2.05567935 0 0 Z " fill="#1C212C" transform="translate(182,176)"/>
<path d="M0 0 C0.99 0 1.98 0 3 0 C3 0.99 3 1.98 3 3 C3.66 3 4.32 3 5 3 C6 4 6 4 7 7 C5.02 7.33 3.04 7.66 1 8 C1 7.01 1 6.02 1 5 C0.68911632 3.32900023 0.35919668 1.66128463 0 0 Z " fill="#061220" transform="translate(293,174)"/>
<path d="M0 0 C5.23175837 -0.38281159 8.37802694 0.78145293 13 3 C9.72814447 4.07310858 7.57052408 3.89263102 4.25 3.0625 C3.45078125 2.86785156 2.6515625 2.67320312 1.828125 2.47265625 C1.22484375 2.31667969 0.6215625 2.16070312 0 2 C0 1.34 0 0.68 0 0 Z " fill="#EA4958" transform="translate(153,340)"/>
<path d="M0 0 C1.4540625 0.0309375 1.4540625 0.0309375 2.9375 0.0625 C2.9375 0.7225 2.9375 1.3825 2.9375 2.0625 C2.339375 2.330625 1.74125 2.59875 1.125 2.875 C-1.03474808 4.04743467 -2.42040256 5.25619282 -4.0625 7.0625 C-4.10504356 5.06295254 -4.10330783 3.06208364 -4.0625 1.0625 C-3.0625 0.0625 -3.0625 0.0625 0 0 Z " fill="#191E26" transform="translate(327.0625,312.9375)"/>
<path d="M0 0 C0.33 0.66 0.66 1.32 1 2 C-2.32307692 6.8 -2.32307692 6.8 -5.75 7.8125 C-6.4925 7.874375 -7.235 7.93625 -8 8 C-7.04578192 6.85073734 -6.08647955 5.70569459 -5.125 4.5625 C-4.59132812 3.92441406 -4.05765625 3.28632813 -3.5078125 2.62890625 C-2 1 -2 1 0 0 Z " fill="#E3E8ED" transform="translate(149,152)"/>
<path d="M0 0 C1 3 1 3 1 5 C3.31 5.33 5.62 5.66 8 6 C7.34 6.66 6.68 7.32 6 8 C0.43181818 7.43181818 0.43181818 7.43181818 -1 6 C-1.125 3.5 -1.125 3.5 -1 1 C-0.67 0.67 -0.34 0.34 0 0 Z " fill="#252A30" transform="translate(317,213)"/>
<path d="M0 0 C2.875 -0.125 2.875 -0.125 6 0 C6.66 0.66 7.32 1.32 8 2 C6.02 2.99 4.04 3.98 2 5 C1.01 4.34 0.02 3.68 -1 3 C-0.67 2.01 -0.34 1.02 0 0 Z " fill="#111927" transform="translate(149,146)"/>
<path d="M0 0 C3 3 6 6 9 9 C3.25 7.125 3.25 7.125 1 6 C0.375 2.9375 0.375 2.9375 0 0 Z " fill="#3C111A" transform="translate(139,345)"/>
<path d="M0 0 C0.33 0 0.66 0 1 0 C1.33 5.61 1.66 11.22 2 17 C0.68 17.33 -0.64 17.66 -2 18 C-1.67 17.34 -1.34 16.68 -1 16 C-0.7677354 13.28737884 -0.58063765 10.59226874 -0.4375 7.875 C-0.39431641 7.12089844 -0.35113281 6.36679687 -0.30664062 5.58984375 C-0.2005168 3.72678112 -0.09974999 1.86341476 0 0 Z " fill="#DFE4E9" transform="translate(332,317)"/>
<path d="M0 0 C1.65 1.65 3.3 3.3 5 5 C4.01 5.66 3.02 6.32 2 7 C1.01 6.67 0.02 6.34 -1 6 C-0.67 4.02 -0.34 2.04 0 0 Z " fill="#333942" transform="translate(373,151)"/>
<path d="M0 0 C0.99 0.33 1.98 0.66 3 1 C1.92892883 1.86949317 0.84254056 2.72014205 -0.25 3.5625 C-0.85328125 4.03816406 -1.4565625 4.51382812 -2.078125 5.00390625 C-4 6 -4 6 -6.234375 5.65234375 C-6.81703125 5.43707031 -7.3996875 5.22179687 -8 5 C-6.35 4.67 -4.7 4.34 -3 4 C-2.67 3.01 -2.34 2.02 -2 1 C-1.34 0.67 -0.68 0.34 0 0 Z " fill="#FDDADD" transform="translate(338,337)"/>
<path d="M0 0 C1.9375 0.8125 1.9375 0.8125 4 2 C4.33 2.99 4.66 3.98 5 5 C3.02 5 1.04 5 -1 5 C-1.33 4.01 -1.66 3.02 -2 2 C-1.34 1.34 -0.68 0.68 0 0 Z " fill="#202430" transform="translate(325,330)"/>
<path d="M0 0 C0.66 0.66 1.32 1.32 2 2 C1.875 4 1.875 4 1 6 C-1.0625 7.25 -1.0625 7.25 -3 8 C-1.125 1.125 -1.125 1.125 0 0 Z " fill="#464953" transform="translate(116,162)"/>
<path d="M0 0 C2.66666667 0.66666667 5.33333333 1.33333333 8 2 C8.33 3.32 8.66 4.64 9 6 C5.06326356 4.68775452 2.77280706 3.08089673 0 0 Z " fill="#D5D8DD" transform="translate(269,237)"/>
<path d="M0 0 C2.35171131 0.59861742 4.6859378 1.26924352 7 2 C7.33 2.66 7.66 3.32 8 4 C5.33333333 4 2.66666667 4 0 4 C0 2.68 0 1.36 0 0 Z " fill="#474B56" transform="translate(341,128)"/>
<path d="M0 0 C2.31 0.66 4.62 1.32 7 2 C7 2.66 7 3.32 7 4 C2.545 3.01 2.545 3.01 -2 2 C-1.34 1.34 -0.68 0.68 0 0 Z " fill="#F33F4B" transform="translate(157,355)"/>
<path d="M0 0 C0.66 0 1.32 0 2 0 C1 3 1 3 -0.8125 4.25 C-3.33943414 5.11637742 -4.52221994 4.88492145 -7 4 C-6.030625 3.525625 -5.06125 3.05125 -4.0625 2.5625 C-1.19522563 1.29806053 -1.19522563 1.29806053 0 0 Z " fill="#DD4052" transform="translate(348,351)"/>
<path d="M0 0 C1.485 0.99 1.485 0.99 3 2 C3.29296875 4.3828125 3.29296875 4.3828125 3.1875 7.125 C3.16042969 8.03507812 3.13335937 8.94515625 3.10546875 9.8828125 C3.07066406 10.58148438 3.03585937 11.28015625 3 12 C2.67 12 2.34 12 2 12 C1.34 8.04 0.68 4.08 0 0 Z " fill="#DD595E" transform="translate(345,315)"/>
<path d="M0 0 C-1.32 1.65 -2.64 3.3 -4 5 C-4.66 3.35 -5.32 1.7 -6 0 C-3.50907189 -1.24546405 -2.58919267 -0.7767578 0 0 Z " fill="#151F28" transform="translate(164,205)"/>
<path d="M0 0 C-0.33 1.32 -0.66 2.64 -1 4 C-2.65 4 -4.3 4 -6 4 C-6 3.34 -6 2.68 -6 2 C-3 0 -3 0 0 0 Z " fill="#10141A" transform="translate(209,190)"/>
</svg>
